PathFileType	4	(X/Y/Z)	pose_F01_0-96.trc
DataRate	CameraRate	NumFrames	NumMarkers	Units	OrigDataRate	OrigDataStartFrame	OrigNumFrames
30	30	10	21	m	30	72	96
Frame#	Time	CHip			RHip			RKnee			RAnkle			RBigToe			RSmallToe			RHeel			LHip			LKnee			LAnkle			LBigToe			LSmallToe			LHeel			Neck			Nose			RShoulder			RElbow			RWrist			LShoulder			LElbow			LWrist			
		X1	Y1	Z1	X2	Y2	Z2	X3	Y3	Z3	X4	Y4	Z4	X5	Y5	Z5	X6	Y6	Z6	X7	Y7	Z7	X8	Y8	Z8	X9	Y9	Z9	X10	Y10	Z10	X11	Y11	Z11	X12	Y12	Z12	X13	Y13	Z13	X14	Y14	Z14	X15	Y15	Z15	X16	Y16	Z16	X17	Y17	Z17	X18	Y18	Z18	X19	Y19	Z19	X20	Y20	Z20	X21	Y21	Z21	
72	2.4	-0.22392701878733495	1.873660365590668	-0.5761866825082388	-0.23906836076086135	1.8706672051522395	-0.5248457264955165	-0.2333084121651209	1.724192595313047	-0.4881527907331484	-0.23307240449576366	1.679711802934624	-0.48916688756446214							-0.17173175254793974	1.6640510286997698	-0.44059580847018714	-0.20439703645065938	1.8769429756837603	-0.6349778577472555	-0.19647924146272588	1.7180891793576663	-0.6015080931306023	-0.19691761420707962	1.5621592850657031	-0.5545863043196465	-0.24064458928237678	1.518830602896538	-0.5951769805588819	-0.22550177913308617	1.5236387249085366	-0.6106565347439287	-0.19727997533783104	1.5515173305909296	-0.5446618063669757	-0.22208025798902448	2.0446223642791708	-0.5805597114016109	-0.25801882099845075	2.122672060605761	-0.6167079026794626	-0.24661524376144847	2.0408055910489256	-0.5094128554153814	-0.24978681792096755	1.946656392326934	-0.471183553078367	-0.2589541181013228	1.8670987989845862	-0.45806861567579504	-0.197300048643876	2.048713797061317	-0.6666332087051011	-1.4152402193231013	1.8719500335074084	0.6146333839793782	-0.19682646259907915	1.8830684721164768	-0.6858387407859092
73	2.433333333333333	-0.22472498250246903	1.8750651112595822	-0.5795620750241437	-0.23797813396173315	1.8733635348329596	-0.5221230704515054	-0.2334765359483852	1.7227460429488677	-0.4877894085938429	-0.23307240449576366	1.679711802934624	-0.48916688756446214							-0.17173175254793974	1.6640510286997698	-0.44059580847018714	-0.20521963894084258	1.8778590231845758	-0.638322833600099	-0.19895580633596444	1.717787126881329	-0.5990364286363916	-0.20061803158843183	1.5598194690580656	-0.5544575264430297	-0.2429495542918936	1.5190937084919718	-0.5929375175117675	-0.2280940834598673	1.5225513451146437	-0.6078040816513437	-0.19872853100942547	1.548474957858304	-0.5467366205830984	-0.222080923718628	2.04463587458054	-0.5804006825883671	-0.2571788333061285	2.1213333657574798	-0.6139876747587362	-0.24354596638737744	2.04036414436594	-0.5000263927283441	-0.2498069048665338	1.9466274430908599	-0.47099377652550545	-0.2655493837413621	1.8665037274889948	-0.45166193856956155	-0.19943732095592454	2.050238561419641	-0.6647608352809596	-1.3963420422322053	1.8713389780155474	0.5835916700673031	-0.20269514881856596	1.8766842911110089	-0.677832549110213
74	2.466666666666667	-0.22507727975167793	1.8711963030883478	-0.578952245059151	-0.24018258562644476	1.8693072619966025	-0.5193262066638198	-0.23337501030977473	1.7218719138919503	-0.4878074827714354	-0.23307240449576366	1.679711802934624	-0.48916688756446214							-0.17173175254793974	1.6640510286997698	-0.44059580847018714	-0.21053150377474256	1.8729909217137566	-0.6364795448127011	-0.19810901017582522	1.7196305138332462	-0.6002685718889367	-0.19971590117762364	1.5599910870476004	-0.5513310535903722	-0.24377531280319753	1.517985233855114	-0.5966043533611679	-0.22907723242003541	1.5226166017049558	-0.6110859920467734	-0.19898235260131975	1.5495870222147936	-0.5466862785861154	-0.2212233785474605	2.0441064521565537	-0.5773126015808367	-0.2592784513793041	2.1202732502260626	-0.6118555527520171	-0.2396371303336266	2.037424905494401	-0.49492465184852513	-0.25073481796473446	1.9457412800108274	-0.4653176065154597	-0.27267420494887395	1.868500617410123	-0.44857967999350506	-0.20058969776132712	2.0490280530296134	-0.659103291729083	-1.3793883967974943	1.8717083897989821	0.5541398843595478	-0.20958252525799614	1.8883857102908748	-0.6756000754155854
75	2.5	-0.22457467001038425	1.8678953701161867	-0.5752474534185106	-0.23675549792579623	1.8657827950310808	-0.5145029561631622	-0.23324284899334105	1.7215302621924204	-0.4864341357101292	-0.23307240449576366	1.679711802934624	-0.48916688756446214							-0.17173175254793974	1.6640510286997698	-0.44059580847018714	-0.20894181175106705	1.8698256797536645	-0.638160219376841	-0.19912508953938574	1.7059050524867296	-0.5977533827805918	-0.2000230442063291	1.5588887977861976	-0.5507459644363242	-0.24085395577832133	1.5195269448207933	-0.5951469813318085	-0.22568082255993016	1.5240994650126365	-0.6105593354245142	-0.19880625220750336	1.5511666698755835	-0.5472480793433743	-0.22318874573436603	2.043870058733802	-0.5749548441982426	-0.260490799088822	2.1183686970860736	-0.6069316797195609	-0.23871280469032424	2.0360672173781706	-0.491822376246445	-0.2506628784705784	1.9486035011285439	-0.4656222669140301	-0.27634284863291103	1.8695487625652205	-0.4527433898371889	-0.20108857445731082	2.049676820712092	-0.6511713683979516	-1.3984864186278072	1.872142185244349	0.5854529713911166	-0.21330340890736169	1.8806398691797683	-0.6759439213488547
76	2.533333333333333	-0.2263099551808748	1.867975869288201	-0.5729465203717219	-0.23844610834469132	1.8659059205298092	-0.5122683470530314	-0.23311068767690737	1.7211886104928904	-0.485060788648823	-0.23307240449576366	1.679711802934624	-0.48916688756446214							-0.17173175254793974	1.6640510286997698	-0.44059580847018714	-0.2108759734653704	1.8707917171190644	-0.6360375519255763	-0.198118959915112	1.7073149871222086	-0.5989947666930704	-0.19961796926057757	1.5597804977646814	-0.5513310206796077	-0.2438740173451775	1.5191304375257753	-0.5962100814767289	-0.22779856104643353	1.5239175066505697	-0.6084663454097946	-0.19766008748603578	1.5505798468452527	-0.54412185219876	-0.22347389491546643	2.0412751603453887	-0.5661763579809578	-0.2579386284713357	2.1165306380899747	-0.5898928715242279	-0.23967794992914784	2.0332738001663038	-0.48604769058996933	-0.2507740522511037	1.9481537385666956	-0.4660048474752373	-0.27727459608185473	1.8732744371447958	-0.46275742583014207	-0.20158889414418354	2.049054816206294	-0.6426372450121307	-1.4069508001341806	1.872102333488796	0.6001430437737353	-0.21448893150948653	1.880096993271712	-0.6791060631405361
77	2.566666666666667	-0.22627935308121216	1.8702761865708524	-0.5733036420407979	-0.2385205459782357	1.8659032272289837	-0.5122629180734886	-0.2329785263604737	1.7208469587933606	-0.48368744158751686	-0.23307240449576366	1.679711802934624	-0.48916688756446214							-0.17173175254793974	1.6640510286997698	-0.44059580847018714	-0.2107040786208926	1.8717638022469887	-0.6362390107382526	-0.19985869456309924	1.7142922825915534	-0.6018776444364327	-0.20072364435413517	1.5601597177280315	-0.5545004477558497	-0.24168829993062224	1.518296894268353	-0.5986390147020225	-0.22875316120492495	1.5239852407242591	-0.6116695039165846	-0.19854587204345261	1.5495256235547943	-0.5476034089296368	-0.22286044058215088	2.0407865650434798	-0.5551536806315008	-0.25913600193501113	2.1136322035353623	-0.584184447048714	-0.23883426882934325	2.0320555730707355	-0.48270075965477954	-0.2508795962558722	1.9467467290657174	-0.46599554664040144	-0.2763368506682771	1.8771205416526735	-0.46884495254231606	-0.2048944848054724	2.050204356213604	-0.6356651211674449	-1.419435633694338	1.8754943773227655	0.6201187183420225	-0.21344688402998974	1.8905078892462188	-0.6772439131427861
78	2.6	-0.22329472771810568	1.870404710471048	-0.5722956771868591	-0.23641788749930892	1.8662652649408975	-0.5144655198426453	-0.2336952940795687	1.7190584720241782	-0.48713384023368034	-0.23307240449576366	1.679711802934624	-0.48916688756446214							-0.17173175254793974	1.6640510286997698	-0.44059580847018714	-0.20999338226355577	1.8709383092854155	-0.6330605706683663	-0.19990590127011187	1.7149799671740946	-0.6019273720492723	-0.1987881428084839	1.5606645405788964	-0.5566885311745422	-0.24265087883830336	1.518909416849233	-0.6016165448347773	-0.22445960643180934	1.5239663071188467	-0.6160663407803388	-0.2006257076747153	1.5496539493894625	-0.5455463853424944	-0.22190648461526435	2.038842973764723	-0.5514898670047614	-0.26017120278075656	2.1134311012991014	-0.5791481355257425	-0.235902371521238	2.029210513491277	-0.47276503719156215	-0.24875616264306002	1.9447592517700576	-0.467270789192072	-0.27200485580667544	1.8814336768398756	-0.4738066276172998	-0.2040115221127899	2.0483360452302484	-0.6321764508446749	-1.4215403664933064	1.8758482205230078	0.6221520133807489	-0.21373183577945232	1.8904036945193163	-0.6773124750290408
79	2.6333333333333333	-0.2241588064388969	1.8692203203914792	-0.5752613742794778	-0.23639473214956105	1.864809754493226	-0.5142227700571622	-0.23370949612962502	1.719031809615305	-0.48712787248933465	-0.23307240449576366	1.679711802934624	-0.48916688756446214							-0.17173175254793974	1.6640510286997698	-0.44059580847018714	-0.20861912120500928	1.8719424191873737	-0.6384189873518019	-0.19965179925682358	1.7127618071173742	-0.6019754687767591	-0.20065872455723618	1.5601899727562816	-0.5544800438717534	-0.24203911166660938	1.5176838416696203	-0.5978013183427442	-0.22661475871760145	1.524088678289808	-0.6138410270227186	-0.197421991050688	1.5488540812604177	-0.5444432667155427	-0.22098800089699627	2.0385700069174586	-0.5485170356587368	-0.2601237007037849	2.1122741600752977	-0.5784465944766216	-0.23490242012309645	2.0290074845676975	-0.4695461682378225	-0.24866162106284698	1.945951794222961	-0.4673427522948625	-0.27008753766367816	1.8822194125892846	-0.47627233252085166	-0.20198042603390173	2.048191132870316	-0.6343204440672675	-1.4212522432142713	1.8775785512140735	0.6223293218648029	-0.21359976304399225	1.8901048459764898	-0.6774347472826029
80	2.6666666666666665	-0.22443762846069382	1.868971590672657	-0.5753718133804108	-0.2386061794651918	1.864950138463489	-0.5121672963398114	-0.23372369817968133	1.7190051472064318	-0.487121904744989	-0.23307240449576366	1.679711802934624	-0.48916688756446214							-0.17173175254793974	1.6640510286997698	-0.44059580847018714	-0.2087545626532597	1.8706056963186628	-0.6384007361695129	-0.19990888648793395	1.7141320476956179	-0.6019367703345475	-0.19998870302775731	1.5585302137849122	-0.5506740278712235	-0.24636588571066428	1.5177083219183298	-0.5934196614996154	-0.23027827089223754	1.522499145775531	-0.6056397169533313	-0.19822952955774023	1.5480398326750997	-0.5429439814369749	-0.21889101759756033	2.0397000552181894	-0.550596639978536	-0.2600852646366479	2.112435799277518	-0.5783368769734701	-0.23487736827298955	2.0290060470513374	-0.4695271478995712	-0.2505377150067287	1.944430391894499	-0.46498592527128085	-0.27314583621397026	1.8773344614528256	-0.48498273192400715	-0.1997090082301965	2.0508947193593814	-0.6369496461614993	-1.4212642713301622	1.8774886456630668	0.6224712569774155	-0.21328973623617406	1.8941511505758435	-0.6774628199205117
81	2.7	-0.22324430308223484	1.866695335823627	-0.5717933021728405	-0.23643421300946088	1.8621684150915871	-0.5137927087179494	-0.23317315803820254	1.720285820553072	-0.48568304085947384	-0.23307240449576366	1.679711802934624	-0.48916688756446214							-0.17173175254793974	1.6640510286997698	-0.44059580847018714	-0.205840274495876	1.8686827138355522	-0.6371987886404074	-0.1986433455899038	1.7118354961290274	-0.59898488885018	-0.19840556969233744	1.561579216730085	-0.5572520722385366	-0.24175734320745612	1.5187715215822821	-0.5983065863074843	-0.22900112912377996	1.5224127005047619	-0.6110416192661614	-0.1984427734405617	1.5497429701905707	-0.5473728343756905	-0.2168412697216769	2.040280011529369	-0.5528414327697178	-0.2579101108496634	2.116954743691081	-0.5805193094399167	-0.23466676273031334	2.0312980205958753	-0.4696130394402513	-0.24953178959974637	1.9459807249187893	-0.47039576017620516	-0.27374434865596664	1.873679965900988	-0.49607782930221933	-0.19770829933726045	2.0499445346024117	-0.6392872191944129	-1.4193027549065644	1.877794585187805	0.6204573667621178	-0.2134625098475117	1.891191243849259	-0.6774640318344999
